<svg width="491" height="133" viewBox="0 0 491 133" fill="none" xmlns="http://www.w3.org/2000/svg">
<path d="M170.894 97.8099C169.998 97.8099 169.55 97.3619 169.55 96.4659V62.3859C169.55 60.3379 169.486 58.4499 169.358 56.7219C169.294 54.9299 169.198 53.1699 169.07 51.4419C168.942 50.5459 169.358 50.0979 170.318 50.0979H181.262C181.646 50.0979 181.966 50.1619 182.222 50.2899C182.478 50.4179 182.638 50.7059 182.702 51.1539C182.958 52.2419 183.15 53.4579 183.278 54.8019C183.406 56.0819 183.502 57.3619 183.566 58.6419L184.91 64.7859V96.4659C184.91 97.3619 184.462 97.8099 183.566 97.8099H170.894ZM183.95 70.8339L182.894 58.4499C184.174 56.6579 185.614 55.0579 187.214 53.6499C188.878 52.1779 190.542 51.0259 192.206 50.1939C193.87 49.3619 195.406 48.9459 196.814 48.9459C197.838 48.9459 198.67 49.0419 199.31 49.2339C199.758 49.3619 200.046 49.5539 200.174 49.8099C200.302 50.0659 200.366 50.4179 200.366 50.8659C200.366 52.5939 200.334 54.5779 200.27 56.8179C200.27 58.9939 200.174 61.0419 199.982 62.9619C199.918 63.4739 199.758 63.8259 199.502 64.0179C199.31 64.2099 198.958 64.2739 198.446 64.2099C198.126 64.1459 197.678 64.0819 197.102 64.0179C196.526 63.9539 195.982 63.9219 195.47 63.9219C194.254 63.9219 192.974 64.1779 191.63 64.6899C190.286 65.2019 188.942 65.9699 187.598 66.9939C186.318 67.9539 185.102 69.2339 183.95 70.8339ZM227.527 98.9619C219.655 98.9619 213.895 97.3299 210.247 94.0659C206.599 90.8019 204.775 85.9699 204.775 79.5699V69.3939C204.775 62.6739 206.567 57.5859 210.151 54.1299C213.799 50.6739 219.495 48.9459 227.239 48.9459C234.727 48.9459 240.327 50.6099 244.039 53.9379C247.815 57.2019 249.703 62.0979 249.703 68.6259V76.1139C249.703 77.0099 249.255 77.4579 248.359 77.4579H219.847V80.2419C219.847 82.6739 220.423 84.5299 221.575 85.8099C222.727 87.0259 224.615 87.6339 227.239 87.6339C229.287 87.6339 230.887 87.3139 232.039 86.6739C233.255 86.0339 233.863 85.0419 233.863 83.6979C233.863 82.9299 234.311 82.5459 235.207 82.5459H247.399C248.231 82.5459 248.679 82.9619 248.743 83.7939C248.807 88.9779 247.111 92.8179 243.655 95.3139C240.199 97.7459 234.823 98.9619 227.527 98.9619ZM219.847 69.0099H234.727V68.6259C234.727 65.6819 234.151 63.5699 232.999 62.2899C231.847 61.0099 229.991 60.3699 227.431 60.3699C224.743 60.3699 222.791 61.0099 221.575 62.2899C220.423 63.5699 219.847 65.6819 219.847 68.6259V69.0099ZM276.004 98.9619C268.9 98.9619 263.78 97.7459 260.644 95.3139C257.572 92.8179 256.26 88.8499 256.708 83.4099C256.836 82.5139 257.316 82.0659 258.148 82.0659H269.764C270.596 82.0659 271.012 82.5459 271.012 83.5059C271.012 85.1059 271.428 86.3219 272.26 87.1539C273.092 87.9859 274.34 88.4019 276.004 88.4019C277.86 88.4019 279.236 88.1139 280.132 87.5379C281.028 86.9619 281.476 86.0339 281.476 84.7539C281.476 83.7299 281.124 82.8979 280.42 82.2579C279.716 81.6179 278.468 80.9139 276.676 80.1459L265.636 75.4419C262.564 74.0979 260.324 72.4659 258.916 70.5459C257.572 68.5619 256.9 65.9379 256.9 62.6739C256.9 58.0019 258.436 54.5459 261.508 52.3059C264.58 50.0659 269.444 48.9459 276.1 48.9459C282.948 48.9459 287.94 50.1299 291.076 52.4979C294.276 54.8019 295.876 58.3539 295.876 63.1539C295.876 64.0499 295.396 64.4979 294.436 64.4979H282.916C282.468 64.4979 282.148 64.3699 281.956 64.1139C281.764 63.7939 281.668 63.4099 281.668 62.9619C281.668 61.8099 281.252 60.9459 280.42 60.3699C279.588 59.7299 278.404 59.4099 276.868 59.4099C275.268 59.4099 274.084 59.6659 273.316 60.1779C272.612 60.6899 272.26 61.5219 272.26 62.6739C272.26 63.4419 272.548 64.1139 273.124 64.6899C273.7 65.2659 274.82 65.9059 276.484 66.6099L287.428 71.1219C290.756 72.4659 293.156 74.1299 294.628 76.1139C296.1 78.0979 296.836 80.7859 296.836 84.1779C296.836 89.1059 295.076 92.8179 291.556 95.3139C288.1 97.7459 282.916 98.9619 276.004 98.9619ZM330.966 98.9619C328.918 98.9619 326.614 98.6739 324.054 98.0979C321.494 97.5859 319.318 96.8179 317.526 95.7939L317.334 84.1779C318.742 85.0099 320.214 85.6179 321.75 86.0019C323.286 86.3859 324.662 86.5779 325.878 86.5779C328.118 86.5779 329.75 85.8419 330.774 84.3699C331.798 82.8979 332.31 80.8179 332.31 78.1299V68.5299C332.31 66.3539 331.926 64.7539 331.158 63.7299C330.39 62.6419 329.078 62.0979 327.222 62.0979C325.43 62.0979 323.67 62.6419 321.942 63.7299C320.214 64.8179 318.518 66.1619 316.854 67.7619L315.798 58.1619C317.27 56.6259 318.87 55.1859 320.598 53.8419C322.39 52.4339 324.374 51.2819 326.55 50.3859C328.726 49.4259 331.19 48.9459 333.942 48.9459C338.55 48.9459 341.974 50.2259 344.214 52.7859C346.518 55.3459 347.67 59.4099 347.67 64.9779V79.4739C347.67 86.3859 346.23 91.3779 343.35 94.4499C340.47 97.4579 336.342 98.9619 330.966 98.9619ZM305.238 115.57C304.342 115.57 303.894 115.122 303.894 114.226V62.2899C303.894 60.3059 303.83 58.4179 303.702 56.6259C303.638 54.8339 303.542 53.1379 303.414 51.5379C303.286 50.5779 303.702 50.0979 304.662 50.0979H315.606C316.374 50.0979 316.854 50.4499 317.046 51.1539C317.174 51.7299 317.302 52.4339 317.43 53.2659C317.558 54.0979 317.654 54.9299 317.718 55.7619C317.846 56.5939 317.91 57.3939 317.91 58.1619L319.254 64.3059V114.226C319.254 115.122 318.806 115.57 317.91 115.57H305.238ZM384.814 97.8099C384.43 97.8099 384.11 97.7139 383.854 97.5219C383.662 97.3299 383.534 97.0419 383.47 96.6579C383.278 95.8259 383.086 94.7379 382.894 93.3939C382.702 92.0499 382.51 90.6419 382.318 89.1699L381.166 85.0419V65.6499C381.166 63.5379 380.75 62.0659 379.918 61.2339C379.15 60.4019 377.742 59.9859 375.694 59.9859C371.918 59.9859 370.158 61.4899 370.414 64.4979C370.478 65.3939 370.03 65.8419 369.07 65.8419H357.454C356.622 65.8419 356.142 65.3619 356.014 64.4019C355.63 59.2819 357.166 55.4419 360.622 52.8819C364.078 50.2579 369.294 48.9459 376.27 48.9459C383.438 48.9459 388.59 50.3219 391.726 53.0739C394.926 55.7619 396.526 60.1779 396.526 66.3219V85.4259C396.526 87.3459 396.558 89.2019 396.622 90.9939C396.686 92.7859 396.814 94.5779 397.006 96.3699C397.134 97.3299 396.718 97.8099 395.758 97.8099H384.814ZM366.382 98.9619C362.414 98.9619 359.342 97.7779 357.166 95.4099C355.054 93.0419 353.998 89.7139 353.998 85.4259C353.998 82.0979 354.606 79.4099 355.822 77.3619C357.102 75.2499 359.182 73.6179 362.062 72.4659C364.942 71.2499 368.846 70.4179 373.774 69.9699L382.51 69.1059L382.414 76.8819L376.078 77.5539C373.326 77.8099 371.406 78.3859 370.318 79.2819C369.23 80.1779 368.686 81.5859 368.686 83.5059C368.686 85.0419 368.974 86.1619 369.55 86.8659C370.19 87.5059 371.15 87.8259 372.43 87.8259C374.094 87.8259 375.726 87.3459 377.326 86.3859C378.926 85.3619 380.75 83.6979 382.798 81.3939L383.758 89.6499C382.094 91.3779 380.398 92.9459 378.67 94.3539C377.006 95.6979 375.182 96.8179 373.198 97.7139C371.214 98.5459 368.942 98.9619 366.382 98.9619ZM407.238 97.8099C406.342 97.8099 405.894 97.3619 405.894 96.4659V62.3859C405.894 60.3379 405.83 58.4499 405.702 56.7219C405.638 54.9299 405.542 53.1699 405.414 51.4419C405.286 50.5459 405.702 50.0979 406.662 50.0979H417.606C417.99 50.0979 418.31 50.1619 418.566 50.2899C418.822 50.4179 418.982 50.7059 419.046 51.1539C419.302 52.2419 419.494 53.4579 419.622 54.8019C419.75 56.0819 419.846 57.3619 419.91 58.6419L421.254 64.7859V96.4659C421.254 97.3619 420.806 97.8099 419.91 97.8099H407.238ZM420.294 70.8339L419.238 58.4499C420.518 56.6579 421.958 55.0579 423.558 53.6499C425.222 52.1779 426.886 51.0259 428.55 50.1939C430.214 49.3619 431.75 48.9459 433.158 48.9459C434.182 48.9459 435.014 49.0419 435.654 49.2339C436.102 49.3619 436.39 49.5539 436.518 49.8099C436.646 50.0659 436.71 50.4179 436.71 50.8659C436.71 52.5939 436.678 54.5779 436.614 56.8179C436.614 58.9939 436.518 61.0419 436.326 62.9619C436.262 63.4739 436.102 63.8259 435.846 64.0179C435.654 64.2099 435.302 64.2739 434.79 64.2099C434.47 64.1459 434.022 64.0819 433.446 64.0179C432.87 63.9539 432.326 63.9219 431.814 63.9219C430.598 63.9219 429.318 64.1779 427.974 64.6899C426.63 65.2019 425.286 65.9699 423.942 66.9939C422.662 67.9539 421.446 69.2339 420.294 70.8339ZM443.425 97.8099C442.529 97.8099 442.081 97.3619 442.081 96.4659V33.5859C442.081 32.6899 442.529 32.2419 443.425 32.2419H456.097C456.993 32.2419 457.441 32.6899 457.441 33.5859V55.3779C457.441 56.7859 457.409 58.2579 457.345 59.7939C457.345 61.2659 457.313 62.7379 457.249 64.2099C457.249 65.6819 457.185 67.1539 457.057 68.6259H457.345C458.305 67.0259 459.329 65.4259 460.417 63.8259C461.505 62.2259 462.561 60.7219 463.585 59.3139L470.017 50.8659C470.401 50.3539 470.913 50.0979 471.553 50.0979H487.009C487.585 50.0979 487.937 50.2579 488.065 50.5779C488.257 50.8339 488.161 51.1859 487.777 51.6339L471.937 70.8339L489.025 96.1779C489.345 96.6259 489.409 97.0099 489.217 97.3299C489.089 97.6499 488.769 97.8099 488.257 97.8099H473.281C472.577 97.8099 472.033 97.5219 471.649 96.9459L461.473 81.1059L457.441 85.8099V96.4659C457.441 97.3619 456.993 97.8099 456.097 97.8099H443.425Z" fill="#1A89FF"/>
<path d="M13.9794 99.3563C13.6349 99.5552 13.3835 99.8829 13.2805 100.267L8.49524 118.126C8.28083 118.926 8.7557 119.749 9.5559 119.963L27.4149 124.749C27.7992 124.852 28.2086 124.798 28.5531 124.599L121.619 70.8672C122.336 70.453 122.582 69.5356 122.168 68.8182L109.094 46.1739C108.68 45.4565 107.762 45.2107 107.045 45.6249L13.9794 99.3563Z" fill="#1F31E9"/>
<path d="M91.4961 15.5784C91.4961 15.1806 91.3381 14.7991 91.0568 14.5178L77.9831 1.44408C77.3973 0.858297 76.4475 0.858295 75.8617 1.44408L62.788 14.5178C62.5067 14.7991 62.3487 15.1806 62.3487 15.5784L62.3488 123.041C62.3488 123.87 63.0203 124.541 63.8488 124.541H89.9961C90.8245 124.541 91.4961 123.87 91.4961 123.041L91.4961 15.5784Z" fill="#268BF5"/>
<path d="M125.291 124.604C125.636 124.803 126.045 124.856 126.429 124.753L144.288 119.968C145.089 119.754 145.563 118.931 145.349 118.131L140.564 100.272C140.461 99.8878 140.209 99.5601 139.865 99.3612L46.7992 45.6299C46.0818 45.2157 45.1644 45.4615 44.7502 46.1789L31.6765 68.8232C31.2623 69.5406 31.5081 70.458 32.2256 70.8722L125.291 124.604Z" fill="#2BC0FE"/>
</svg>
