<svg width="271" height="106" viewBox="0 0 271 106" fill="none" xmlns="http://www.w3.org/2000/svg">
<g clip-path="url(#clip0_59_17)">
<path fill-rule="evenodd" clip-rule="evenodd" d="M23.2672 12.3729L58.9683 12.3729L58.9683 93.2017H0L2.98361e-06 12.3729H12.0386L12.0386 70.7781C12.0386 76.9795 17.0658 82.0067 23.2672 82.0067L23.2672 12.3729ZM35.7346 29.1654C35.7346 26.0741 38.2407 23.568 41.3321 23.568C44.4235 23.568 46.9295 26.0741 46.9295 29.1654V93.1976H35.7346V29.1654Z" fill="#1A89FF"/>
<path d="M100.066 8.40713C100.066 9.51171 100.475 10.4731 101.293 11.2913C102.153 12.0686 103.134 12.4573 104.239 12.4573C105.425 12.4573 106.407 12.0686 107.185 11.2913C108.003 10.4731 108.412 9.51171 108.412 8.40713C108.412 7.26163 108.003 6.30023 107.185 5.52293C106.407 4.74563 105.425 4.35698 104.239 4.35698C103.134 4.35698 102.153 4.74563 101.293 5.52293C100.475 6.30023 100.066 7.26163 100.066 8.40713ZM100.987 19.6371V47.8654H107.491V19.6371H100.987Z" fill="#1A89FF"/>
<path d="M123.055 0H116.366V47.8654H123.055V0Z" fill="#1A89FF"/>
<path d="M165.021 48.4791C168.294 48.4791 171.097 47.8449 173.429 46.5767C175.761 45.3085 177.663 43.4061 179.136 40.8697L173.429 38.5378C172.529 40.0515 171.404 41.1765 170.053 41.9129C168.703 42.6493 167.128 43.0175 165.328 43.0175C163.61 43.0175 162.137 42.6493 160.91 41.9129C159.724 41.1765 158.824 40.1128 158.21 38.7219C157.596 37.29 157.289 35.5513 157.289 33.5058C157.33 31.4603 157.658 29.742 158.271 28.351C158.885 26.9601 159.785 25.8964 160.971 25.16C162.158 24.4236 163.59 24.0554 165.267 24.0554C166.658 24.0554 167.865 24.3623 168.888 24.9759C169.951 25.5896 170.769 26.4487 171.342 27.5533C171.956 28.6579 172.263 29.967 172.263 31.4807C172.263 31.7671 172.181 32.1353 172.017 32.5853C171.894 32.9944 171.772 33.3217 171.649 33.5672L173.674 30.7443H154.528V35.2854H179.32C179.361 35.1218 179.381 34.8558 179.381 34.4876C179.422 34.1194 179.442 33.7717 179.442 33.4444C179.442 30.417 178.87 27.8397 177.724 25.7123C176.62 23.5441 175.024 21.8872 172.938 20.7417C170.851 19.5962 168.315 19.0234 165.328 19.0234C162.342 19.0234 159.744 19.6371 157.535 20.8644C155.326 22.0508 153.607 23.7486 152.38 25.9578C151.194 28.167 150.601 30.7648 150.601 33.7512C150.601 36.6968 151.194 39.2742 152.38 41.4833C153.567 43.6925 155.244 45.4108 157.412 46.6381C159.621 47.8654 162.158 48.4791 165.021 48.4791Z" fill="#1A89FF"/>
<path d="M192.335 19.6371H185.768V47.8654H192.335V19.6371ZM200.742 26.6942L203.933 21.1099C203.319 20.3326 202.562 19.8007 201.662 19.5144C200.762 19.1871 199.801 19.0234 198.778 19.0234C197.346 19.0234 195.955 19.5348 194.605 20.5576C193.296 21.5803 192.212 22.9713 191.353 24.7305C190.535 26.4487 190.125 28.4329 190.125 30.683L192.335 31.9716C192.335 30.6216 192.478 29.4556 192.764 28.4738C193.091 27.451 193.603 26.6533 194.298 26.0805C194.994 25.5078 195.894 25.2214 196.998 25.2214C197.817 25.2214 198.492 25.3441 199.023 25.5896C199.555 25.835 200.128 26.2032 200.742 26.6942Z" fill="#1A89FF"/>
<path d="M204.554 19.6371V25.4669H220.57V19.6371H204.554ZM209.279 9.81855V47.8654H215.845V9.81855H209.279Z" fill="#1A89FF"/>
<path d="M250.117 19.6371H242.998L234.162 41.7902L237.291 41.9743L228.271 19.6371H220.661L232.014 44.5516L224.65 61.3659H231.707L250.117 19.6371Z" fill="#1A89FF"/>
<path d="M119.674 85.8149V102.997H126.486V85.0785C126.486 81.6829 125.647 79.0237 123.97 77.1009C122.293 75.1372 119.859 74.1553 116.668 74.1553C114.704 74.1553 113.006 74.5644 111.574 75.3827C110.183 76.2009 109.038 77.4486 108.138 79.126V74.769H101.51V102.997H108.138V85.8149C108.138 84.5466 108.404 83.442 108.935 82.5011C109.467 81.5192 110.204 80.7829 111.145 80.2919C112.086 79.7601 113.17 79.4942 114.397 79.4942C116.197 79.4942 117.527 80.026 118.386 81.0897C119.245 82.1534 119.674 83.7284 119.674 85.8149Z" fill="#1A89FF"/>
<path d="M130.355 74.769L144.96 105.575L159.626 74.769H152.324L144.96 92.9947L137.596 74.769H130.355Z" fill="#1A89FF"/>
<path d="M160.728 88.8832C160.728 91.7469 161.383 94.3038 162.692 96.5539C164.042 98.7631 165.863 100.502 168.154 101.77C170.445 102.997 173.042 103.611 175.947 103.611C178.852 103.611 181.429 102.997 183.679 101.77C185.97 100.502 187.791 98.7631 189.141 96.5539C190.491 94.3038 191.166 91.7469 191.166 88.8832C191.166 85.9785 190.491 83.4216 189.141 81.2124C187.791 79.0032 185.97 77.285 183.679 76.0577C181.429 74.7895 178.852 74.1553 175.947 74.1553C173.042 74.1553 170.445 74.7895 168.154 76.0577C165.863 77.285 164.042 79.0032 162.692 81.2124C161.383 83.4216 160.728 85.9785 160.728 88.8832ZM167.54 88.8832C167.54 87.124 167.908 85.5694 168.644 84.2193C169.381 82.8693 170.383 81.8261 171.651 81.0897C172.92 80.3533 174.352 79.9851 175.947 79.9851C177.502 79.9851 178.913 80.3533 180.181 81.0897C181.49 81.8261 182.513 82.8693 183.25 84.2193C183.986 85.5694 184.354 87.124 184.354 88.8832C184.354 90.6423 183.986 92.1969 183.25 93.547C182.513 94.8561 181.49 95.8993 180.181 96.6766C178.913 97.413 177.502 97.7812 175.947 97.7812C174.352 97.7812 172.92 97.413 171.651 96.6766C170.383 95.8993 169.381 94.8561 168.644 93.547C167.908 92.1969 167.54 90.6423 167.54 88.8832Z" fill="#1A89FF"/>
<path d="M197.209 63.539C197.209 64.6436 197.618 65.605 198.436 66.4232C199.295 67.2005 200.277 67.5892 201.382 67.5892C202.568 67.5892 203.55 67.2005 204.327 66.4232C205.146 65.605 205.555 64.6436 205.555 63.539C205.555 62.3935 205.146 61.4321 204.327 60.6548C203.55 59.8775 202.568 59.4889 201.382 59.4889C200.277 59.4889 199.295 59.8775 198.436 60.6548C197.618 61.4321 197.209 62.3935 197.209 63.539ZM198.129 74.769V102.997H204.634V74.769H198.129Z" fill="#1A89FF"/>
<path d="M218.173 88.8832C218.173 87.124 218.562 85.5694 219.339 84.2193C220.116 82.8693 221.159 81.8056 222.469 81.0283C223.819 80.251 225.312 79.8624 226.948 79.8624C228.257 79.8624 229.526 80.0669 230.753 80.476C231.98 80.8851 233.064 81.4579 234.005 82.1943C234.987 82.8897 235.703 83.708 236.153 84.6489V77.3464C235.171 76.3645 233.842 75.5872 232.164 75.0145C230.487 74.4417 228.646 74.1553 226.641 74.1553C223.737 74.1553 221.119 74.7895 218.787 76.0577C216.496 77.285 214.675 79.0032 213.325 81.2124C212.016 83.4216 211.361 85.9785 211.361 88.8832C211.361 91.7469 212.016 94.3038 213.325 96.5539C214.675 98.7631 216.496 100.502 218.787 101.77C221.119 102.997 223.737 103.611 226.641 103.611C228.646 103.611 230.487 103.325 232.164 102.752C233.842 102.179 235.171 101.402 236.153 100.42V93.1174C235.703 94.0174 235.008 94.8356 234.067 95.572C233.126 96.3084 232.042 96.8812 230.814 97.2903C229.587 97.6994 228.298 97.9039 226.948 97.9039C225.312 97.9039 223.819 97.5153 222.469 96.738C221.159 95.9607 220.116 94.9175 219.339 93.6083C218.562 92.2583 218.173 90.6832 218.173 88.8832Z" fill="#1A89FF"/>
<path d="M255.752 103.611C259.025 103.611 261.827 102.977 264.159 101.709C266.491 100.44 268.393 98.5381 269.866 96.0016L264.159 93.6697C263.259 95.1834 262.134 96.3084 260.784 97.0448C259.434 97.7812 257.859 98.1494 256.059 98.1494C254.341 98.1494 252.868 97.7812 251.64 97.0448C250.454 96.3084 249.554 95.2448 248.94 93.8538C248.327 92.4219 248.02 90.6832 248.02 88.6377C248.061 86.5922 248.388 84.8739 249.002 83.483C249.615 82.092 250.515 81.0283 251.702 80.2919C252.888 79.5555 254.32 79.1873 255.997 79.1873C257.388 79.1873 258.595 79.4942 259.618 80.1078C260.682 80.7215 261.5 81.5806 262.073 82.6852C262.686 83.7898 262.993 85.0989 262.993 86.6126C262.993 86.899 262.911 87.2672 262.748 87.7172C262.625 88.1263 262.502 88.4536 262.379 88.6991L264.405 85.8762H245.258V90.4173H270.05C270.091 90.2537 270.112 89.9877 270.112 89.6195C270.152 89.2513 270.173 88.9036 270.173 88.5763C270.173 85.5489 269.6 82.9716 268.455 80.8442C267.35 78.676 265.755 77.0191 263.668 75.8736C261.582 74.7281 259.045 74.1553 256.059 74.1553C253.072 74.1553 250.474 74.769 248.265 75.9963C246.056 77.1827 244.338 78.8805 243.111 81.0897C241.924 83.2989 241.331 85.8967 241.331 88.8832C241.331 91.8287 241.924 94.4061 243.111 96.6153C244.297 98.8244 245.974 100.543 248.143 101.77C250.352 102.997 252.888 103.611 255.752 103.611Z" fill="#1A89FF"/>
<path d="M116.822 33.055C116.822 35.9187 117.439 38.4756 118.675 40.7257C119.949 42.9349 121.668 44.6736 123.83 45.9418C125.992 47.1691 128.444 47.7828 131.186 47.7828C133.928 47.7828 136.36 47.1691 138.484 45.9418C140.647 44.6736 142.365 42.9349 143.639 40.7257C144.913 38.4756 145.551 35.9187 145.551 33.055C145.551 30.1503 144.913 27.5934 143.639 25.3842C142.365 23.1751 140.647 21.4568 138.484 20.2295C136.36 18.9613 133.928 18.3271 131.186 18.3271C128.444 18.3271 125.992 18.9613 123.83 20.2295C121.668 21.4568 119.949 23.1751 118.675 25.3842C117.439 27.5934 116.822 30.1503 116.822 33.055ZM123.251 33.055C123.251 31.2958 123.598 29.7412 124.293 28.3912C124.988 27.0411 125.934 25.9979 127.132 25.2615C128.329 24.5251 129.68 24.1569 131.186 24.1569C132.653 24.1569 133.986 24.5251 135.183 25.2615C136.418 25.9979 137.384 27.0411 138.079 28.3912C138.774 29.7412 139.121 31.2958 139.121 33.055C139.121 34.8141 138.774 36.3687 138.079 37.7188C137.384 39.0279 136.418 40.0711 135.183 40.8484C133.986 41.5848 132.653 41.953 131.186 41.953C129.68 41.953 128.329 41.5848 127.132 40.8484C125.934 40.0711 124.988 39.0279 124.293 37.7188C123.598 36.3687 123.251 34.8141 123.251 33.055Z" fill="#1A89FF"/>
<path d="M85.8049 59.0065C85.8049 57.1758 87.289 55.6918 89.1197 55.6918V55.6918C90.9504 55.6918 92.4344 57.1758 92.4344 59.0065L92.4344 102.949L85.8049 102.949L85.8049 59.0065Z" fill="#1A89FF"/>
<path d="M85.8049 0.335938L92.4344 0.335938L92.4344 47.5929V47.5929C88.7731 47.5929 85.8049 44.6247 85.8049 40.9634L85.8049 0.335938Z" fill="#1A89FF"/>
</g>
<defs>
<clipPath id="clip0_59_17">
<rect width="271" height="106" fill="white"/>
</clipPath>
</defs>
</svg>
