<svg width="280" height="75" viewBox="0 0 280 75" fill="none" xmlns="http://www.w3.org/2000/svg">
<path fill-rule="evenodd" clip-rule="evenodd" d="M57 0H0V75H57V0ZM48.8571 8.33337H8.14289V66.6666H48.8571V8.33337Z" fill="#004EE7"/>
<path d="M24.4285 16.6665H16.2856V58.3331H40.7142V49.9998H24.4285V16.6665Z" fill="url(#paint0_linear_603_134)"/>
<rect x="32.5713" y="16.6665" width="8.14289" height="25" fill="#A425FF"/>
<path d="M68 28.0818V25.4418C68.6133 25.4152 69.12 25.3352 69.52 25.2018C69.9467 25.0685 70.2667 24.7618 70.48 24.2818C70.72 23.8018 70.84 23.0285 70.84 21.9618V6.64182C70.84 5.92182 70.8533 5.22849 70.88 4.56182C70.9333 3.89515 70.9733 3.38848 71 3.04182C70.5733 3.06849 70.04 3.09515 69.4 3.12182C68.76 3.12182 68.2933 3.13515 68 3.16182V0.0818171H79.48V2.72182C78.8933 2.74849 78.3867 2.82849 77.96 2.96182C77.5333 3.09515 77.2 3.40182 76.96 3.88182C76.7467 4.33515 76.64 5.10849 76.64 6.20182V21.5218C76.64 22.2418 76.6267 22.9218 76.6 23.5618C76.5733 24.2018 76.5333 24.6952 76.48 25.0418H81.84C83.4133 25.0152 84.64 24.4685 85.52 23.4018C86.4267 22.3085 86.88 20.6685 86.88 18.4818H89.56L89.32 28.0818H68Z" fill="#004EE7"/>
<path d="M110.821 2.72182C110.234 2.74849 109.727 2.82849 109.301 2.96182C108.874 3.09515 108.541 3.40182 108.301 3.88182C108.087 4.33515 107.981 5.10849 107.981 6.20182V21.5218C107.981 22.2418 107.967 22.9352 107.941 23.6018C107.914 24.2685 107.874 24.7752 107.821 25.1218C108.247 25.0685 108.781 25.0418 109.421 25.0418C110.087 25.0152 110.554 25.0018 110.821 25.0018V28.0818H99.3406V25.4418C99.954 25.4152 100.461 25.3352 100.861 25.2018C101.287 25.0685 101.607 24.7618 101.821 24.2818C102.061 23.8018 102.181 23.0285 102.181 21.9618V6.64182C102.181 5.92182 102.194 5.22849 102.221 4.56182C102.274 3.89515 102.314 3.38848 102.341 3.04182C101.914 3.06849 101.381 3.09515 100.741 3.12182C100.101 3.12182 99.634 3.13515 99.3406 3.16182V0.0818171H110.821V2.72182Z" fill="#004EE7"/>
<path d="M122.009 28.0818V25.4418C122.623 25.4152 123.129 25.3352 123.529 25.2018C123.956 25.0685 124.276 24.7618 124.489 24.2818C124.729 23.8018 124.849 23.0285 124.849 21.9618V6.64182C124.849 5.92182 124.863 5.22849 124.889 4.56182C124.943 3.89515 124.983 3.38848 125.009 3.04182C124.583 3.06849 124.049 3.09515 123.409 3.12182C122.769 3.12182 122.303 3.13515 122.009 3.16182V0.0818171C123.849 0.0551508 125.689 0.0418176 127.529 0.0418176C129.396 0.0418176 131.249 0.0284845 133.089 0.00181814C136.289 -0.0248482 138.823 0.575152 140.689 1.80182C142.583 3.00182 143.463 4.82848 143.329 7.28182C143.276 8.05515 143.036 8.81515 142.609 9.56182C142.183 10.2818 141.543 10.9352 140.689 11.5218C139.863 12.1085 138.823 12.5752 137.569 12.9218V12.9618C140.236 13.3885 142.196 14.2818 143.449 15.6418C144.703 16.9752 145.329 18.4685 145.329 20.1218C145.329 21.8552 144.903 23.3218 144.049 24.5218C143.223 25.6952 142.076 26.5885 140.609 27.2018C139.143 27.7885 137.476 28.0818 135.609 28.0818H122.009ZM130.489 25.2418C130.969 25.2418 131.423 25.2418 131.849 25.2418C132.276 25.2418 132.703 25.2418 133.129 25.2418C133.556 25.2152 133.969 25.2018 134.369 25.2018C135.996 25.1218 137.183 24.6018 137.929 23.6418C138.676 22.6818 139.049 21.4685 139.049 20.0018C139.049 18.7752 138.796 17.8152 138.289 17.1218C137.783 16.4018 137.129 15.8952 136.329 15.6018C135.556 15.3085 134.743 15.1618 133.889 15.1618C133.223 15.1618 132.649 15.1618 132.169 15.1618C131.689 15.1618 131.183 15.1752 130.649 15.2018V21.7218C130.649 22.4418 130.636 23.1218 130.609 23.7618C130.583 24.4018 130.543 24.8952 130.489 25.2418ZM130.649 12.3618L132.729 12.3218C133.849 12.2952 134.729 12.0418 135.369 11.5618C136.036 11.0818 136.503 10.4418 136.769 9.64182C137.063 8.81515 137.209 7.92182 137.209 6.96182C137.209 5.89515 136.996 5.06848 136.569 4.48182C136.143 3.86848 135.609 3.42848 134.969 3.16182C134.329 2.89515 133.663 2.77515 132.969 2.80182C132.543 2.80182 132.156 2.86848 131.809 3.00182C131.463 3.13515 131.183 3.44182 130.969 3.92182C130.756 4.37515 130.649 5.12182 130.649 6.16182V12.3618Z" fill="#004EE7"/>
<path d="M168.825 18.4418C168.825 17.3218 168.652 16.5218 168.305 16.0418C167.958 15.5352 167.478 15.2152 166.865 15.0818C166.278 14.9485 165.625 14.8952 164.905 14.9218L163.865 14.9618V21.5218C163.865 22.2418 163.852 22.9218 163.825 23.5618C163.798 24.2018 163.758 24.6952 163.705 25.0418H169.065C169.865 25.0418 170.638 24.8685 171.385 24.5218C172.132 24.1485 172.745 23.5485 173.225 22.7218C173.705 21.8685 173.945 20.7218 173.945 19.2818H176.545L176.345 28.0818H155.225V25.4418C155.838 25.4152 156.345 25.3352 156.745 25.2018C157.172 25.0685 157.492 24.7618 157.705 24.2818C157.945 23.8018 158.065 23.0285 158.065 21.9618V6.64182C158.065 5.92182 158.078 5.22849 158.105 4.56182C158.158 3.89515 158.198 3.38848 158.225 3.04182C157.798 3.06849 157.265 3.09515 156.625 3.12182C155.985 3.12182 155.518 3.13515 155.225 3.16182V0.0818171H175.225L175.465 7.84182H172.825C172.825 6.37515 172.572 5.26848 172.065 4.52182C171.558 3.77515 170.932 3.28182 170.185 3.04182C169.438 2.77515 168.705 2.65515 167.985 2.68182L166.545 2.72182C165.985 2.72182 165.505 2.80182 165.105 2.96182C164.705 3.09515 164.398 3.41515 164.185 3.92182C163.972 4.40182 163.865 5.16182 163.865 6.20182V12.2018H168.545L168.385 8.72182H171.465V18.4418H168.825Z" fill="#004EE7"/>
<path d="M187.386 28.0818V25.4418C187.999 25.4152 188.506 25.3352 188.906 25.2018C189.333 25.0685 189.653 24.7618 189.866 24.2818C190.106 23.8018 190.226 23.0285 190.226 21.9618V6.64182C190.226 5.92182 190.239 5.22849 190.266 4.56182C190.319 3.89515 190.359 3.38848 190.386 3.04182C189.959 3.06849 189.426 3.09515 188.786 3.12182C188.146 3.12182 187.679 3.13515 187.386 3.16182V0.0818171C189.279 0.0551508 191.173 0.0418176 193.066 0.0418176C194.959 0.0418176 196.853 0.0284845 198.746 0.00181814C201.093 -0.0248482 203.133 0.241818 204.866 0.801817C206.599 1.36182 207.933 2.26849 208.866 3.52182C209.799 4.77515 210.239 6.46848 210.186 8.60182C210.159 9.72182 209.879 10.7885 209.346 11.8018C208.839 12.8152 208.066 13.7085 207.026 14.4818C206.013 15.2552 204.719 15.8685 203.146 16.3218C203.653 16.5352 204.146 16.8818 204.626 17.3618C205.133 17.8418 205.559 18.3485 205.906 18.8818L207.786 21.6818C208.373 22.5885 208.893 23.3085 209.346 23.8418C209.799 24.3752 210.253 24.7752 210.706 25.0418C211.159 25.2818 211.679 25.4152 212.266 25.4418V28.0818H205.666C205.186 27.7352 204.706 27.2418 204.226 26.6018C203.773 25.9352 203.279 25.1752 202.746 24.3218L199.786 19.5218C199.439 18.9885 199.133 18.5352 198.866 18.1618C198.626 17.7885 198.373 17.4685 198.106 17.2018C197.679 17.2018 197.319 17.2018 197.026 17.2018C196.733 17.2018 196.399 17.2018 196.026 17.2018V21.4818C196.026 22.2285 196.013 22.9352 195.986 23.6018C195.959 24.2685 195.919 24.7752 195.866 25.1218C196.159 25.0952 196.533 25.0818 196.986 25.0818C197.439 25.0552 197.879 25.0418 198.306 25.0418C198.759 25.0152 199.079 25.0018 199.266 25.0018V28.0818H187.386ZM197.946 14.3218C199.439 14.3218 200.639 14.1085 201.546 13.6818C202.453 13.2285 203.106 12.5618 203.506 11.6818C203.933 10.7752 204.146 9.64182 204.146 8.28182C204.146 7.00182 203.946 6.00182 203.546 5.28182C203.146 4.53515 202.639 3.98848 202.026 3.64182C201.439 3.26849 200.839 3.04182 200.226 2.96182C199.613 2.85515 199.106 2.80182 198.706 2.80182C198.146 2.80182 197.666 2.86848 197.266 3.00182C196.866 3.13515 196.559 3.42848 196.346 3.88182C196.133 4.33515 196.026 5.02849 196.026 5.96182V14.1618C196.319 14.1885 196.626 14.2285 196.946 14.2818C197.266 14.3085 197.599 14.3218 197.946 14.3218Z" fill="#004EE7"/>
<path d="M242.688 9.12182C242.688 7.68182 242.488 6.49515 242.088 5.56182C241.688 4.60182 241.114 3.89515 240.368 3.44182C239.648 2.96182 238.781 2.73515 237.768 2.76182H235.848V21.5218C235.848 22.2418 235.834 22.9352 235.808 23.6018C235.781 24.2685 235.741 24.7752 235.688 25.1218C236.141 25.0685 236.714 25.0418 237.408 25.0418C238.128 25.0152 238.621 25.0018 238.888 25.0018V28.0818H227.208V25.4418C227.821 25.4152 228.328 25.3352 228.728 25.2018C229.154 25.0685 229.474 24.7618 229.688 24.2818C229.928 23.8018 230.048 23.0285 230.048 21.9618V2.80182H228.208C226.688 2.82848 225.488 3.34848 224.608 4.36182C223.728 5.37515 223.288 6.96182 223.288 9.12182H220.648L220.848 0.0818171H245.088L245.328 9.12182H242.688Z" fill="#004EE7"/>
<path d="M261.343 28.0818V25.4418C261.957 25.4152 262.463 25.3352 262.863 25.2018C263.29 25.0685 263.61 24.7618 263.823 24.2818C264.063 23.8018 264.183 23.0285 264.183 21.9618V18.4818L256.823 6.84182C256.45 6.22848 256.103 5.54848 255.783 4.80182C255.463 4.05515 255.303 3.46848 255.303 3.04182C254.877 3.06849 254.517 3.09515 254.223 3.12182C253.93 3.12182 253.637 3.13515 253.343 3.16182V0.0818171H265.143V2.72182C264.37 2.66848 263.73 2.74848 263.223 2.96182C262.717 3.17515 262.41 3.52182 262.303 4.00182C262.197 4.45515 262.357 5.05515 262.783 5.80182L265.823 10.8018C265.957 11.0152 266.157 11.3618 266.423 11.8418C266.69 12.2952 266.957 12.7885 267.223 13.3218C267.517 13.8285 267.73 14.2818 267.863 14.6818H267.903C268.037 14.3618 268.263 13.8818 268.583 13.2418C268.903 12.6018 269.303 11.7752 269.783 10.7618L271.863 6.68182C271.997 6.38849 272.183 6.01515 272.423 5.56182C272.663 5.08182 272.917 4.61515 273.183 4.16182C273.477 3.68182 273.743 3.29515 273.983 3.00182C273.557 3.02848 273.01 3.05515 272.343 3.08182C271.677 3.10849 271.197 3.13515 270.903 3.16182V0.0818171H279.743V2.72182C278.81 2.85515 278.01 3.24182 277.343 3.88182C276.677 4.49515 275.957 5.53515 275.183 7.00182C274.33 8.65515 273.463 10.3218 272.583 12.0018C271.703 13.6818 270.837 15.3485 269.983 17.0018C269.983 17.3752 269.983 17.7485 269.983 18.1218C269.983 18.4952 269.983 18.8818 269.983 19.2818C269.983 19.6552 269.983 20.0285 269.983 20.4018C269.983 20.7752 269.983 21.1485 269.983 21.5218C269.983 22.2418 269.97 22.9352 269.943 23.6018C269.917 24.2685 269.877 24.7752 269.823 25.1218C270.277 25.0685 270.85 25.0418 271.543 25.0418C272.263 25.0152 272.757 25.0018 273.023 25.0018V28.0818H261.343Z" fill="#004EE7"/>
<path d="M76.4375 39.4773V74.3864H68V39.4773H76.4375Z" fill="#004EE7"/>
<path d="M113.845 39.4773V74.3864H106.686L92.7935 54.2386H92.5719V74.3864H84.1344V39.4773H91.3957L105.134 59.5909H105.424V39.4773H113.845Z" fill="#004EE7"/>
<path d="M129.476 39.4773L137.283 65.0455H137.573L145.38 39.4773H154.823L143.044 74.3864H131.811L120.033 39.4773H129.476Z" fill="#004EE7"/>
<path d="M191.868 56.9318C191.868 60.7727 191.129 64.0284 189.652 66.6989C188.174 69.3693 186.174 71.3977 183.652 72.7841C181.14 74.1705 178.322 74.8636 175.197 74.8636C172.061 74.8636 169.237 74.1648 166.726 72.767C164.214 71.3693 162.22 69.3409 160.743 66.6818C159.277 64.0114 158.544 60.7614 158.544 56.9318C158.544 53.0909 159.277 49.8352 160.743 47.1648C162.22 44.4943 164.214 42.4659 166.726 41.0795C169.237 39.6932 172.061 39 175.197 39C178.322 39 181.14 39.6932 183.652 41.0795C186.174 42.4659 188.174 44.4943 189.652 47.1648C191.129 49.8352 191.868 53.0909 191.868 56.9318ZM183.243 56.9318C183.243 54.6591 182.919 52.7386 182.271 51.1705C181.635 49.6023 180.714 48.4148 179.51 47.608C178.316 46.8011 176.879 46.3977 175.197 46.3977C173.527 46.3977 172.089 46.8011 170.885 47.608C169.68 48.4148 168.754 49.6023 168.106 51.1705C167.47 52.7386 167.152 54.6591 167.152 56.9318C167.152 59.2045 167.47 61.125 168.106 62.6932C168.754 64.2614 169.68 65.4489 170.885 66.2557C172.089 67.0625 173.527 67.4659 175.197 67.4659C176.879 67.4659 178.316 67.0625 179.51 66.2557C180.714 65.4489 181.635 64.2614 182.271 62.6932C182.919 61.125 183.243 59.2045 183.243 56.9318Z" fill="#004EE7"/>
<path d="M207.631 39.4773V74.3864H199.194V39.4773H207.631Z" fill="#004EE7"/>
<path d="M247.016 52.125H238.493C238.379 51.25 238.146 50.4602 237.794 49.7557C237.442 49.0511 236.976 48.4489 236.396 47.9489C235.817 47.4489 235.129 47.0682 234.334 46.8068C233.55 46.5341 232.68 46.3977 231.726 46.3977C230.033 46.3977 228.572 46.8125 227.345 47.642C226.129 48.4716 225.192 49.6705 224.533 51.2386C223.885 52.8068 223.561 54.7045 223.561 56.9318C223.561 59.25 223.891 61.1932 224.55 62.7614C225.22 64.3182 226.158 65.4943 227.362 66.2898C228.578 67.0739 230.016 67.4659 231.675 67.4659C232.607 67.4659 233.453 67.3466 234.214 67.108C234.987 66.8693 235.663 66.5227 236.243 66.0682C236.834 65.6023 237.317 65.0398 237.692 64.3807C238.078 63.7102 238.345 62.9545 238.493 62.1136L247.016 62.1648C246.868 63.7102 246.419 65.233 245.669 66.733C244.93 68.233 243.913 69.6023 242.618 70.8409C241.322 72.0682 239.743 73.0455 237.879 73.7727C236.027 74.5 233.902 74.8636 231.504 74.8636C228.345 74.8636 225.516 74.1705 223.016 72.7841C220.527 71.3864 218.561 69.3523 217.118 66.6818C215.675 64.0114 214.953 60.7614 214.953 56.9318C214.953 53.0909 215.686 49.8352 217.152 47.1648C218.618 44.4943 220.601 42.4659 223.101 41.0795C225.601 39.6932 228.402 39 231.504 39C233.618 39 235.572 39.2955 237.368 39.8864C239.163 40.4659 240.743 41.3182 242.107 42.4432C243.47 43.5568 244.578 44.9261 245.43 46.5511C246.283 48.1761 246.811 50.0341 247.016 52.125Z" fill="#004EE7"/>
<path d="M254.244 74.3864V39.4773H278.585V46.3295H262.681V53.4886H277.34V60.358H262.681V67.5341H278.585V74.3864H254.244Z" fill="#004EE7"/>
<defs>
<linearGradient id="paint0_linear_603_134" x1="24.8007" y1="16.6665" x2="41.3635" y2="58.0734" gradientUnits="userSpaceOnUse">
<stop stop-color="#004EE7"/>
<stop offset="1" stop-color="#A425FF"/>
</linearGradient>
</defs>
</svg>
